<?xml version="1.0" encoding="UTF-8" standalone="no" ?>
<!DOCTYPE svg PUBLIC "-//W3C//DTD SVG 1.1//EN" "http://www.w3.org/Graphics/SVG/1.1/DTD/svg11.dtd">
<svg xmlns="http://www.w3.org/2000/svg" xmlns:xlink="http://www.w3.org/1999/xlink" version="1.1" width="1080" height="1080" viewBox="0 0 1080 1080" xml:space="preserve">
<desc>Created with Fabric.js 5.2.4</desc>
<defs>
</defs>
<rect x="0" y="0" width="100%" height="100%" fill="transparent"></rect>
<g transform="matrix(1 0 0 1 540 540)" id="bdb6f31d-f39d-4875-b9b3-184bf1238ee7"  >
<rect style="stroke: none; stroke-width: 1; stroke-dasharray: none; stroke-linecap: butt; stroke-dashoffset: 0; stroke-linejoin: miter; stroke-miterlimit: 4; fill: rgb(226,119,0); fill-rule: nonzero; opacity: 1;" vector-effect="non-scaling-stroke"  x="-540" y="-540" rx="0" ry="0" width="1080" height="1080" />
</g>
<g transform="matrix(1 0 0 1 540 540)" id="9bab17ff-0067-4577-8405-7a4718f45d25"  >
</g>
<g transform="matrix(0.85 0 0 0.85 541.55 541.55)"  >
<g style="" vector-effect="non-scaling-stroke"   >
		<g transform="matrix(0.13 0 0 -0.13 0 0)"  >
<path style="stroke: none; stroke-width: 1; stroke-dasharray: none; stroke-linecap: butt; stroke-dashoffset: 0; stroke-linejoin: miter; stroke-miterlimit: 4; fill: rgb(0,0,0); fill-rule: nonzero; opacity: 1;" vector-effect="non-scaling-stroke"  transform=" translate(-5120, -5120)" d="M 0 5120 L 0 0 L 5120 0 L 10240 0 L 10240 5120 L 10240 10240 L 5120 10240 L 0 10240 L 0 5120 z M 7788 6722 C 7789 6718 7189 6114 6455 5380 L 5120 4045 L 4565 4600 C 4260 4905 3656 5506 3224 5935 L 2438 6715 L 3606 7890 C 4249 8537 4851 9143 4943 9237 L 5112 9407 L 6448 8068 C 7184 7331 7786 6726 7788 6722 z M 2840 3799 C 3076 3736 3241 3572 3304 3335 C 3313 3302 3323 3231 3327 3178 C 3345 2901 3229 2652 3024 2527 C 2801 2392 2446 2389 2222 2522 C 2086 2602 1972 2766 1935 2935 C 1912 3038 1919 3266 1948 3356 C 2018 3574 2178 3736 2383 3795 C 2515 3833 2704 3835 2840 3799 z M 3690 3673 C 3715 3603 3796 3371 3870 3158 C 3944 2945 4007 2770 4010 2770 C 4013 2770 4084 2972 4169 3218 C 4254 3464 4335 3696 4349 3734 L 4375 3802 L 4510 3801 C 4584 3800 4646 3798 4647 3796 C 4650 3793 4580 3605 4279 2813 L 4145 2460 L 4009 2460 L 3874 2460 L 3771 2728 C 3609 3147 3373 3763 3366 3785 C 3360 3804 3364 3805 3503 3803 L 3645 3801 L 3690 3673 z M 8378 3680 L 8381 3560 L 8175 3560 L 7970 3560 L 7970 3010 L 7970 2460 L 7835 2460 L 7700 2460 L 7700 3010 L 7700 3560 L 7485 3560 L 7270 3560 L 7270 3683 L 7270 3805 L 7822 3803 L 8375 3800 L 8378 3680 z M 5772 3680 L 5769 3560 L 5449 3560 L 5130 3560 L 5130 3405 L 5130 3250 L 5410 3250 L 5690 3250 L 5690 3135 L 5690 3020 L 5410 3020 L 5130 3020 L 5130 2855 L 5130 2690 L 5465 2690 L 5800 2690 L 5800 2575 L 5800 2460 L 5330 2460 L 4860 2460 L 4860 3130 L 4860 3800 L 5318 3800 L 5775 3800 L 5772 3680 z M 6883 3768 C 7007 3720 7077 3654 7122 3542 C 7152 3466 7154 3328 7126 3254 C 7086 3147 7001 3062 6888 3018 C 6856 3005 6830 2992 6830 2989 C 6830 2986 6911 2866 7009 2724 L 7189 2465 L 7038 2462 C 6925 2460 6883 2463 6875 2472 C 6868 2479 6789 2594 6700 2728 L 6536 2970 L 6443 2970 L 6350 2970 L 6350 2715 L 6350 2460 L 6215 2460 L 6080 2460 L 6080 3131 L 6080 3801 L 6448 3798 L 6815 3795 L 6883 3768 z M 4873 2095 C 4977 2068 5038 2009 5055 1918 L 5062 1880 L 4981 1880 C 4916 1880 4900 1883 4900 1895 C 4900 1924 4846 1971 4803 1981 C 4711 2001 4630 1958 4630 1888 C 4630 1837 4652 1824 4821 1775 C 4902 1752 4971 1725 4999 1706 C 5088 1646 5115 1535 5065 1433 C 5022 1348 4936 1302 4800 1293 C 4623 1281 4486 1362 4461 1493 L 4453 1540 L 4536 1540 C 4614 1540 4620 1538 4620 1520 C 4620 1439 4763 1392 4867 1439 C 4912 1460 4930 1484 4930 1525 C 4930 1585 4902 1602 4720 1650 C 4542 1698 4481 1749 4472 1855 C 4467 1920 4483 1971 4523 2016 C 4595 2099 4736 2131 4873 2095 z M 6466 2089 C 6522 2072 6543 2058 6590 2012 C 6625 1977 6653 1937 6665 1907 C 6675 1881 6681 1858 6679 1856 C 6677 1854 6641 1850 6600 1847 L 6525 1841 L 6504 1883 C 6475 1943 6424 1970 6339 1970 C 6280 1970 6266 1966 6224 1938 C 6159 1894 6121 1821 6113 1724 C 6098 1537 6208 1416 6377 1433 C 6459 1442 6525 1500 6544 1583 L 6550 1610 L 6463 1610 L 6375 1610 L 6378 1675 L 6382 1740 L 6536 1740 L 6690 1740 L 6690 1525 L 6690 1310 L 6631 1310 C 6568 1310 6560 1317 6560 1379 C 6560 1402 6559 1401 6523 1370 C 6461 1315 6406 1296 6310 1296 C 6233 1295 6218 1298 6158 1328 C 6076 1368 6010 1439 5979 1518 C 5960 1566 5956 1594 5956 1695 C 5956 1796 5960 1824 5979 1872 C 6003 1935 6071 2017 6126 2051 C 6222 2110 6351 2124 6466 2089 z M 2950 2074 C 3029 2056 3123 2001 3163 1948 C 3220 1874 3235 1824 3235 1705 C 3235 1605 3232 1590 3206 1533 C 3174 1464 3108 1395 3040 1360 C 2970 1324 2878 1310 2710 1310 L 2555 1310 L 2558 1700 L 2560 2090 L 2721 2090 C 2830 2090 2903 2085 2950 2074 z M 4118 2024 L 4115 1959 L 3931 1957 L 3748 1955 L 3746 1868 L 3744 1780 L 3907 1780 L 4070 1780 L 4070 1710 L 4070 1640 L 3907 1640 L 3744 1640 L 3745 1548 L 3745 1455 L 3943 1452 L 4140 1450 L 4140 1380 L 4140 1310 L 3865 1310 L 3590 1310 L 3590 1700 L 3590 2090 L 3855 2090 L 4121 2090 L 4118 2024 z M 5600 1700 L 5600 1310 L 5520 1310 L 5440 1310 L 5440 1700 L 5440 2090 L 5520 2090 L 5600 2090 L 5600 1700 z M 7285 1998 C 7318 1950 7397 1835 7460 1744 L 7575 1578 L 7578 1834 L 7580 2090 L 7660 2090 L 7740 2090 L 7740 1700 L 7740 1310 L 7667 1310 L 7593 1310 L 7414 1570 C 7316 1713 7233 1830 7230 1830 C 7227 1830 7226 1713 7228 1570 L 7231 1310 L 7150 1310 L 7070 1310 L 7070 1700 L 7070 2091 L 7147 2088 L 7224 2085 L 7285 1998 z" stroke-linecap="round" />
</g>
		<g transform="matrix(0.13 0 0 -0.13 -0.93 -214.13)"  >
<path style="stroke: none; stroke-width: 1; stroke-dasharray: none; stroke-linecap: butt; stroke-dashoffset: 0; stroke-linejoin: miter; stroke-miterlimit: 4; fill: rgb(0,0,0); fill-rule: nonzero; opacity: 1;" vector-effect="non-scaling-stroke"  transform=" translate(-5113, -6726)" d="M 4671 8673 C 4427 8427 3889 7886 3477 7472 L 2726 6719 L 3921 5524 L 5115 4330 L 6307 5522 C 6963 6178 7500 6717 7500 6720 C 7499 6723 6963 7264 6307 7923 L 5115 9122 L 4671 8673 z M 5326 7855 C 5577 7822 5796 7756 6012 7647 C 6266 7521 6471 7369 6710 7130 C 6840 7001 7070 6744 7078 6719 C 7090 6688 6634 6216 6470 6089 C 6049 5762 5602 5601 5116 5599 C 4784 5598 4486 5668 4178 5818 C 3928 5941 3738 6081 3500 6320 C 3371 6449 3161 6685 3152 6710 C 3147 6725 3420 7028 3557 7161 C 3994 7585 4449 7808 4990 7863 C 5078 7872 5219 7869 5326 7855 z" stroke-linecap="round" />
</g>
		<g transform="matrix(0.13 0 0 -0.13 -0.55 -215.42)"  >
<path style="stroke: none; stroke-width: 1; stroke-dasharray: none; stroke-linecap: butt; stroke-dashoffset: 0; stroke-linejoin: miter; stroke-miterlimit: 4; fill: rgb(0,0,0); fill-rule: nonzero; opacity: 1;" vector-effect="non-scaling-stroke"  transform=" translate(-5115.89, -6735.67)" d="M 5011 7580 C 4657 7531 4367 7261 4295 6915 C 4273 6806 4275 6616 4300 6510 C 4357 6274 4520 6069 4735 5965 C 4873 5898 4930 5886 5105 5885 C 5273 5885 5341 5898 5466 5955 C 5764 6091 5952 6387 5952 6720 C 5951 7013 5821 7267 5584 7436 C 5424 7551 5202 7606 5011 7580 z M 5195 7189 C 5503 7132 5668 6807 5534 6523 C 5451 6348 5241 6238 5048 6268 C 4819 6303 4651 6497 4650 6725 C 4650 6948 4803 7137 5024 7185 C 5101 7202 5123 7202 5195 7189 z" stroke-linecap="round" />
</g>
		<g transform="matrix(0.13 0 0 -0.13 -0.65 -214.59)"  >
<path style="stroke: none; stroke-width: 1; stroke-dasharray: none; stroke-linecap: butt; stroke-dashoffset: 0; stroke-linejoin: miter; stroke-miterlimit: 4; fill: rgb(0,0,0); fill-rule: nonzero; opacity: 1;" vector-effect="non-scaling-stroke"  transform=" translate(-5115.1, -6729.42)" d="M 5025 6965 C 4974 6947 4898 6866 4882 6813 C 4830 6640 4942 6480 5114 6480 C 5191 6480 5243 6504 5297 6562 C 5357 6628 5376 6718 5349 6814 C 5336 6862 5267 6937 5215 6961 C 5167 6983 5081 6985 5025 6965 z" stroke-linecap="round" />
</g>
		<g transform="matrix(0.13 0 0 -0.13 159 -215.08)"  >
<path style="stroke: none; stroke-width: 1; stroke-dasharray: none; stroke-linecap: butt; stroke-dashoffset: 0; stroke-linejoin: miter; stroke-miterlimit: 4; fill: rgb(0,0,0); fill-rule: nonzero; opacity: 1;" vector-effect="non-scaling-stroke"  transform=" translate(-6312.5, -6733.13)" d="M 5867 7467 C 6013 7314 6099 7147 6146 6930 C 6175 6796 6171 6594 6137 6465 C 6090 6289 5995 6119 5870 5986 C 5794 5905 5800 5905 5962 5986 C 6214 6112 6471 6320 6739 6614 L 6829 6713 L 6724 6831 C 6442 7147 6147 7381 5874 7506 L 5796 7541 L 5867 7467 z" stroke-linecap="round" />
</g>
		<g transform="matrix(0.13 0 0 -0.13 -160.54 -213.65)"  >
<path style="stroke: none; stroke-width: 1; stroke-dasharray: none; stroke-linecap: butt; stroke-dashoffset: 0; stroke-linejoin: miter; stroke-miterlimit: 4; fill: rgb(0,0,0); fill-rule: nonzero; opacity: 1;" vector-effect="non-scaling-stroke"  transform=" translate(-3915.97, -6722.34)" d="M 4295 7472 C 4087 7363 3888 7215 3701 7031 C 3548 6879 3407 6722 3413 6707 C 3416 6701 3478 6630 3551 6551 C 3712 6378 3908 6204 4045 6113 C 4140 6049 4410 5907 4419 5915 C 4421 5918 4397 5945 4366 5977 C 4294 6049 4212 6171 4160 6283 C 4029 6563 4033 6919 4172 7197 C 4219 7291 4318 7427 4384 7488 C 4409 7511 4424 7530 4417 7530 C 4411 7530 4356 7504 4295 7472 z" stroke-linecap="round" />
</g>
		<g transform="matrix(0.13 0 0 -0.13 -332.63 265.98)"  >
<path style="stroke: none; stroke-width: 1; stroke-dasharray: none; stroke-linecap: butt; stroke-dashoffset: 0; stroke-linejoin: miter; stroke-miterlimit: 4; fill: rgb(0,0,0); fill-rule: nonzero; opacity: 1;" vector-effect="non-scaling-stroke"  transform=" translate(-2625.31, -3125.15)" d="M 2528 3580 C 2363 3552 2234 3419 2199 3242 C 2185 3165 2192 3004 2214 2935 C 2264 2775 2403 2674 2591 2663 C 2888 2645 3080 2851 3057 3164 C 3035 3460 2820 3629 2528 3580 z" stroke-linecap="round" />
</g>
		<g transform="matrix(0.13 0 0 -0.13 198.54 231.33)"  >
<path style="stroke: none; stroke-width: 1; stroke-dasharray: none; stroke-linecap: butt; stroke-dashoffset: 0; stroke-linejoin: miter; stroke-miterlimit: 4; fill: rgb(0,0,0); fill-rule: nonzero; opacity: 1;" vector-effect="non-scaling-stroke"  transform=" translate(-6609.06, -3385)" d="M 6350 3385 L 6350 3208 L 6543 3212 C 6707 3215 6741 3218 6773 3234 C 6899 3296 6900 3468 6775 3530 C 6728 3554 6714 3555 6538 3558 L 6350 3562 L 6350 3385 z" stroke-linecap="round" />
</g>
		<g transform="matrix(0.13 0 0 -0.13 -296.62 455.09)"  >
<path style="stroke: none; stroke-width: 1; stroke-dasharray: none; stroke-linecap: butt; stroke-dashoffset: 0; stroke-linejoin: miter; stroke-miterlimit: 4; fill: rgb(0,0,0); fill-rule: nonzero; opacity: 1;" vector-effect="non-scaling-stroke"  transform=" translate(-2895.33, -1706.85)" d="M 2715 1949 C 2712 1941 2711 1827 2712 1695 L 2715 1455 L 2815 1456 C 2923 1457 2972 1473 3016 1522 C 3071 1582 3093 1685 3070 1778 C 3055 1841 2997 1911 2940 1934 C 2882 1957 2722 1968 2715 1949 z" stroke-linecap="round" />
</g>
</g>
</g>
</svg>