<?xml version="1.0" encoding="UTF-8" standalone="no" ?>
<!DOCTYPE svg PUBLIC "-//W3C//DTD SVG 1.1//EN" "http://www.w3.org/Graphics/SVG/1.1/DTD/svg11.dtd">
<svg xmlns="http://www.w3.org/2000/svg" xmlns:xlink="http://www.w3.org/1999/xlink" version="1.1" width="1080" height="1080" viewBox="0 0 1080 1080" xml:space="preserve">
<desc>Created with Fabric.js 5.2.4</desc>
<defs>
</defs>
<rect x="0" y="0" width="100%" height="100%" fill="transparent"></rect>
<g transform="matrix(1 0 0 1 540 540)" id="fa8626bd-80f1-4a14-ac82-a39e430c2c1e"  >
</g>
<g transform="matrix(1 0 0 1 540 540)" id="118880b8-8a2c-4102-99be-9c54f751342c"  >
<rect style="stroke: none; stroke-width: 1; stroke-dasharray: none; stroke-linecap: butt; stroke-dashoffset: 0; stroke-linejoin: miter; stroke-miterlimit: 4; fill: rgb(255,170,0); fill-rule: nonzero; opacity: 1;" vector-effect="non-scaling-stroke"  x="-540" y="-540" rx="0" ry="0" width="1080" height="1080" />
</g>
<g transform="matrix(1.49 0 0 1.49 554.66 553.23)"  >
<g style="" vector-effect="non-scaling-stroke"   >
		<g transform="matrix(0.13 0 0 -0.13 -9.33 -9.33)"  >
<path style="stroke: none; stroke-width: 1; stroke-dasharray: none; stroke-linecap: butt; stroke-dashoffset: 0; stroke-linejoin: miter; stroke-miterlimit: 4; fill: rgb(0,0,0); fill-rule: nonzero; opacity: 1;" vector-effect="non-scaling-stroke"  transform=" translate(-2800, -2800)" d="M 0 2800 L 0 0 L 2800 0 L 5600 0 L 5600 2800 L 5600 5600 L 2800 5600 L 0 5600 L 0 2800 z M 5468 2782 C 5469 2778 4869 2174 4135 1440 L 2800 105 L 2245 660 C 1940 965 1336 1566 904 1995 L 118 2775 L 1286 3950 C 1929 4597 2531 5203 2623 5297 L 2792 5467 L 4128 4128 C 4864 3391 5466 2786 5468 2782 z" stroke-linecap="round" />
</g>
		<g transform="matrix(0.13 0 0 -0.13 -8.89 -6.12)"  >
<path style="stroke: none; stroke-width: 1; stroke-dasharray: none; stroke-linecap: butt; stroke-dashoffset: 0; stroke-linejoin: miter; stroke-miterlimit: 4; fill: rgb(0,0,0); fill-rule: nonzero; opacity: 1;" vector-effect="non-scaling-stroke"  transform=" translate(-2793, -2786)" d="M 2351 4733 C 2107 4487 1569 3946 1157 3532 L 406 2779 L 1601 1584 L 2795 390 L 3987 1582 C 4643 2238 5180 2777 5180 2780 C 5179 2783 4643 3324 3987 3983 L 2795 5182 L 2351 4733 z M 3006 3915 C 3257 3882 3476 3816 3692 3707 C 3946 3581 4151 3429 4390 3190 C 4520 3061 4750 2804 4758 2779 C 4770 2748 4314 2276 4150 2149 C 3729 1822 3282 1661 2796 1659 C 2464 1658 2166 1728 1858 1878 C 1608 2001 1418 2141 1180 2380 C 1051 2509 841 2745 832 2770 C 827 2785 1100 3088 1237 3221 C 1674 3645 2129 3868 2670 3923 C 2758 3932 2899 3929 3006 3915 z" stroke-linecap="round" />
</g>
		<g transform="matrix(0.13 0 0 -0.13 -3.34 -2.26)"  >
<path style="stroke: none; stroke-width: 1; stroke-dasharray: none; stroke-linecap: butt; stroke-dashoffset: 0; stroke-linejoin: miter; stroke-miterlimit: 4; fill: rgb(0,0,0); fill-rule: nonzero; opacity: 1;" vector-effect="non-scaling-stroke"  transform=" translate(-2795.89, -2795.67)" d="M 2691 3640 C 2337 3591 2047 3321 1975 2975 C 1953 2866 1955 2676 1980 2570 C 2037 2334 2200 2129 2415 2025 C 2553 1958 2610 1946 2785 1945 C 2953 1945 3021 1958 3146 2015 C 3444 2151 3632 2447 3632 2780 C 3631 3073 3501 3327 3264 3496 C 3104 3611 2882 3666 2691 3640 z M 2875 3249 C 3183 3192 3348 2867 3214 2583 C 3131 2408 2921 2298 2728 2328 C 2499 2363 2331 2557 2330 2785 C 2330 3008 2483 3197 2704 3245 C 2781 3262 2803 3262 2875 3249 z" stroke-linecap="round" />
</g>
		<g transform="matrix(0.13 0 0 -0.13 -1.47 0.58)"  >
<path style="stroke: none; stroke-width: 1; stroke-dasharray: none; stroke-linecap: butt; stroke-dashoffset: 0; stroke-linejoin: miter; stroke-miterlimit: 4; fill: rgb(0,0,0); fill-rule: nonzero; opacity: 1;" vector-effect="non-scaling-stroke"  transform=" translate(-2795.1, -2789.42)" d="M 2705 3025 C 2654 3007 2578 2926 2562 2873 C 2510 2700 2622 2540 2794 2540 C 2871 2540 2923 2564 2977 2622 C 3037 2688 3056 2778 3029 2874 C 3016 2922 2947 2997 2895 3021 C 2847 3043 2761 3045 2705 3025 z" stroke-linecap="round" />
</g>
		<g transform="matrix(0.13 0 0 -0.13 157.27 -1.78)"  >
<path style="stroke: none; stroke-width: 1; stroke-dasharray: none; stroke-linecap: butt; stroke-dashoffset: 0; stroke-linejoin: miter; stroke-miterlimit: 4; fill: rgb(0,0,0); fill-rule: nonzero; opacity: 1;" vector-effect="non-scaling-stroke"  transform=" translate(-3992.5, -2793.13)" d="M 3547 3527 C 3693 3374 3779 3207 3826 2990 C 3855 2856 3851 2654 3817 2525 C 3770 2349 3675 2179 3550 2046 C 3474 1965 3480 1965 3642 2046 C 3894 2172 4151 2380 4419 2674 L 4509 2773 L 4404 2891 C 4122 3207 3827 3441 3554 3566 L 3476 3601 L 3547 3527 z" stroke-linecap="round" />
</g>
		<g transform="matrix(0.13 0 0 -0.13 -162.21 -0.33)"  >
<path style="stroke: none; stroke-width: 1; stroke-dasharray: none; stroke-linecap: butt; stroke-dashoffset: 0; stroke-linejoin: miter; stroke-miterlimit: 4; fill: rgb(0,0,0); fill-rule: nonzero; opacity: 1;" vector-effect="non-scaling-stroke"  transform=" translate(-1595.97, -2782.34)" d="M 1975 3532 C 1767 3423 1568 3275 1381 3091 C 1228 2939 1087 2782 1093 2767 C 1096 2761 1158 2690 1231 2611 C 1392 2438 1588 2264 1725 2173 C 1820 2109 2090 1967 2099 1975 C 2101 1978 2077 2005 2046 2037 C 1974 2109 1892 2231 1840 2343 C 1709 2623 1713 2979 1852 3257 C 1899 3351 1998 3487 2064 3548 C 2089 3571 2104 3590 2097 3590 C 2091 3590 2036 3564 1975 3532 z" stroke-linecap="round" />
</g>
</g>
</g>
</svg>